<svg width="194" height="194" viewBox="0 0 194 194" fill="none" xmlns="http://www.w3.org/2000/svg">
<path d="M149.38 23.2798C148.311 23.2798 147.44 24.1508 147.44 25.2198C147.44 26.2887 148.311 27.1598 149.38 27.1598C150.449 27.1598 151.32 26.2887 151.32 25.2198C151.32 24.1508 150.449 23.2798 149.38 23.2798Z" fill="#F1BC19"/>
<path opacity="0.5" d="M93.903 20.4209C54.2611 20.4209 22.123 52.5589 22.123 92.2009C22.123 131.843 54.2611 163.981 93.903 163.981C133.545 163.981 165.683 131.843 165.683 92.2009C165.683 52.5589 133.545 20.4209 93.903 20.4209Z" fill="white"/>
<path d="M161.02 21.3398C156.73 21.3398 153.26 24.8105 153.26 29.0998C153.26 33.3892 156.73 36.8598 161.02 36.8598C165.309 36.8598 168.78 33.3892 168.78 29.0998C168.78 24.8105 165.309 21.3398 161.02 21.3398Z" fill="#FFAF1B"/>
<path d="M168.78 42.6802C166.637 42.6802 164.9 44.4165 164.9 46.5602C164.9 48.7039 166.637 50.4402 168.78 50.4402C170.924 50.4402 172.66 48.7039 172.66 46.5602C172.66 44.4165 170.924 42.6802 168.78 42.6802Z" fill="white"/>
<path d="M157.14 143.56C154.996 143.56 153.26 145.296 153.26 147.44C153.26 149.584 154.996 151.32 157.14 151.32C159.284 151.32 161.02 149.584 161.02 147.44C161.02 145.296 159.284 143.56 157.14 143.56ZM29.0998 114.46C24.8105 114.46 21.3398 117.931 21.3398 122.22C21.3398 126.509 24.8105 129.98 29.0998 129.98C33.3892 129.98 36.8598 126.509 36.8598 122.22C36.8598 117.931 33.3892 114.46 29.0998 114.46Z" fill="#FBCD59"/>
<path d="M48.5001 164.9C46.3564 164.9 44.6201 166.636 44.6201 168.78C44.6201 170.924 46.3564 172.66 48.5001 172.66C50.6438 172.66 52.3801 170.924 52.3801 168.78C52.3801 166.636 50.6438 164.9 48.5001 164.9Z" fill="white"/>
<path d="M35.89 95.0601C33.2148 95.0601 31.04 97.2348 31.04 99.9101C31.04 102.585 33.2148 104.76 35.89 104.76C38.5653 104.76 40.74 102.585 40.74 99.9101C40.74 97.2348 38.5653 95.0601 35.89 95.0601ZM154.23 62.0801C152.624 62.0801 151.32 63.3838 151.32 64.9901C151.32 66.5964 152.624 67.9001 154.23 67.9001C155.836 67.9001 157.14 66.5964 157.14 64.9901C157.14 63.3838 155.836 62.0801 154.23 62.0801Z" fill="white"/>
<path d="M116.425 105.668L132.605 72.4771L116.584 64.6668L100.404 97.8581L116.425 105.668Z" fill="#20C355"/>
<path d="M116.425 105.668L132.605 72.4771L116.584 64.6668L100.404 97.8581L116.425 105.668Z" stroke="#292929" stroke-width="0.961161" stroke-miterlimit="10" stroke-linecap="round" stroke-linejoin="round"/>
<path d="M126.26 71.6528L121.138 69.1558C120.166 71.1502 117.761 71.9787 115.766 71.0063L103.138 96.9087L115.482 102.927L128.11 77.0247C126.116 76.0522 125.287 73.6472 126.26 71.6528Z" fill="#F6F9EA"/>
<path d="M126.26 71.6528L121.138 69.1558C120.166 71.1502 117.761 71.9787 115.766 71.0063L103.138 96.9087L115.482 102.927L128.11 77.0247C126.116 76.0522 125.287 73.6472 126.26 71.6528Z" stroke="#292929" stroke-width="0.961161" stroke-miterlimit="10" stroke-linecap="round" stroke-linejoin="round"/>
<path d="M129.989 73.5381L117.645 67.521L103.258 97.0361L115.602 103.053L129.989 73.5381Z" stroke="#292929" stroke-width="0.961161" stroke-miterlimit="10" stroke-linecap="round" stroke-linejoin="round"/>
<path d="M117.728 86.7818C120.052 86.7818 121.936 84.8979 121.936 82.574C121.936 80.2501 120.052 78.3662 117.728 78.3662C115.404 78.3662 113.521 80.2501 113.521 82.574C113.521 84.8979 115.404 86.7818 117.728 86.7818Z" fill="#20C355"/>
<path d="M117.728 86.7818C120.052 86.7818 121.936 84.8979 121.936 82.574C121.936 80.2501 120.052 78.3662 117.728 78.3662C115.404 78.3662 113.521 80.2501 113.521 82.574C113.521 84.8979 115.404 86.7818 117.728 86.7818Z" stroke="#292929" stroke-width="0.961161" stroke-miterlimit="10" stroke-linecap="round" stroke-linejoin="round"/>
<path d="M116.094 107.268L144.649 83.8564L133.349 70.0732L104.794 93.4844L116.094 107.268Z" fill="#20C355"/>
<path d="M116.094 107.268L144.649 83.8564L133.349 70.0732L104.794 93.4844L116.094 107.268Z" stroke="#292929" stroke-width="0.961161" stroke-miterlimit="10" stroke-linecap="round" stroke-linejoin="round"/>
<path d="M139.219 80.4632L135.607 76.0571C133.891 77.4639 131.359 77.2134 129.952 75.4976L107.668 93.7682L116.375 104.388L138.659 86.1173C137.253 84.4014 137.503 81.87 139.219 80.4632Z" fill="#F6F9EA"/>
<path d="M139.219 80.4632L135.607 76.0571C133.891 77.4639 131.359 77.2134 129.952 75.4976L107.668 93.7682L116.375 104.388L138.659 86.1173C137.253 84.4014 137.503 81.87 139.219 80.4632Z" stroke="#292929" stroke-width="0.961161" stroke-miterlimit="10" stroke-linecap="round" stroke-linejoin="round"/>
<path d="M141.767 83.5696L133.061 72.9497L107.669 93.7674L116.376 104.387L141.767 83.5696Z" stroke="#292929" stroke-width="0.961161" stroke-miterlimit="10" stroke-linecap="round" stroke-linejoin="round"/>
<path d="M126.91 91.0372C129.234 91.0372 131.118 89.1533 131.118 86.8294C131.118 84.5055 129.234 82.6216 126.91 82.6216C124.586 82.6216 122.702 84.5055 122.702 86.8294C122.702 89.1533 124.586 91.0372 126.91 91.0372Z" fill="#20C355"/>
<path d="M126.91 91.0372C129.234 91.0372 131.118 89.1533 131.118 86.8294C131.118 84.5055 129.234 82.6216 126.91 82.6216C124.586 82.6216 122.702 84.5055 122.702 86.8294C122.702 89.1533 124.586 91.0372 126.91 91.0372Z" stroke="#292929" stroke-width="0.961161" stroke-miterlimit="10" stroke-linecap="round" stroke-linejoin="round"/>
<path d="M94.4472 69.951C101.595 69.951 107.389 64.1565 107.389 57.0087C107.389 49.8609 101.595 44.0664 94.4472 44.0664C87.2993 44.0664 81.5049 49.8609 81.5049 57.0087C81.5049 64.1565 87.2993 69.951 94.4472 69.951Z" fill="#FBCD59"/>
<path d="M94.4473 44.569C101.307 44.569 106.887 50.1496 106.887 57.0089C106.887 63.8681 101.307 69.4487 94.4473 69.4487C87.5881 69.4487 82.0075 63.8681 82.0075 57.0089C82.0075 50.1496 87.5881 44.569 94.4473 44.569ZM94.4473 42.5439C86.4584 42.5439 79.9824 49.0199 79.9824 57.0089C79.9824 64.9978 86.4584 71.4738 94.4473 71.4738C102.436 71.4738 108.912 64.9978 108.912 57.0089C108.912 49.0199 102.436 42.5439 94.4473 42.5439Z" fill="#292929"/>
<path d="M94.221 55.9668L94.2222 55.9672C94.5881 56.104 94.99 56.2791 95.4291 56.4918C95.8592 56.7013 96.2562 56.9282 96.6204 57.1699C96.9243 57.3737 97.1947 57.6771 97.4231 58.1016C97.6377 58.5027 97.7537 58.9858 97.7537 59.5689C97.7537 60.5434 97.4444 61.2352 96.871 61.7157C96.5081 62.019 96.0554 62.2291 95.5107 62.3564L95.1245 62.4467V62.8433V64.1868C95.1245 64.5638 94.8114 64.8831 94.4095 64.8831C94.0077 64.8831 93.6945 64.5638 93.6945 64.1868V62.8732V62.4597L93.2884 62.3821C92.7968 62.2881 92.3637 62.141 91.9901 61.9296L91.9894 61.9292C91.2945 61.5374 91.1406 61.2136 91.1406 61.0057C91.1406 60.8978 91.1812 60.7522 91.3237 60.5633C91.4483 60.3989 91.5283 60.3875 91.5645 60.3871C91.5675 60.3876 91.5789 60.3898 91.6001 60.3986C91.6331 60.4124 91.6819 60.439 91.7475 60.4877C91.908 60.6079 92.0659 60.7417 92.219 60.8879C92.4467 61.107 92.7473 61.2818 93.0922 61.4286L93.093 61.429C93.4754 61.591 93.889 61.6672 94.3269 61.6672C94.9212 61.6672 95.4583 61.534 95.9064 61.2293C96.4031 60.8927 96.6469 60.3842 96.6469 59.777C96.6469 59.3511 96.5181 58.9586 96.2611 58.6196L96.2602 58.6184C96.022 58.3062 95.7159 58.0533 95.3508 57.8579C95.0275 57.6842 94.6739 57.5172 94.293 57.3575L94.2917 57.357C93.9373 57.2095 93.5792 57.042 93.2174 56.8551L93.2157 56.8543C92.8684 56.6766 92.5547 56.4767 92.2703 56.256L92.2701 56.2558C92.0317 56.071 91.829 55.816 91.6683 55.4772C91.5151 55.1543 91.4322 54.7748 91.4322 54.3241C91.4322 53.8217 91.5342 53.398 91.7229 53.0409C91.9168 52.6752 92.1701 52.4026 92.4795 52.2099L92.4795 52.2099L92.4807 52.2091C92.7443 52.044 93.0338 51.9195 93.3482 51.817L93.6933 51.7045V51.3416V49.8306C93.6933 49.4536 94.0065 49.1343 94.4083 49.1343C94.8101 49.1343 95.1233 49.4536 95.1233 49.8306V51.1239V51.5687L95.5651 51.6205C95.6107 51.6258 95.6515 51.6273 95.6742 51.6282L95.6775 51.6283C95.7002 51.6292 95.7073 51.6296 95.7117 51.63C96.0028 51.6668 96.3147 51.725 96.6477 51.8075C96.944 51.8824 97.1567 51.9902 97.3078 52.117L97.309 52.118C97.4355 52.2235 97.4621 52.3087 97.4621 52.3908C97.4621 52.5165 97.4221 52.6738 97.3058 52.8699C97.2416 52.9762 97.1916 53.0006 97.1449 53.0057C97.1197 52.9986 97.0802 52.9855 97.0237 52.9639C96.9074 52.9194 96.7455 52.8492 96.5336 52.7502L96.5331 52.7499C96.026 52.5136 95.4704 52.4004 94.8761 52.4004C94.2389 52.4004 93.6744 52.5176 93.2383 52.8153C92.7814 53.1271 92.5414 53.5817 92.5414 54.1315C92.5414 54.6012 92.747 55.0027 93.0992 55.3137C93.4135 55.5914 93.7924 55.8052 94.221 55.9668ZM97.1649 53.0108C97.1649 53.0108 97.1641 53.0107 97.1623 53.0103L97.1649 53.0108Z" stroke="white"/>
<g clip-path="url(#clip0_33_73)">
<path d="M77.4299 68.1509L103.807 78.7018V82.2187H100.29C100.29 82.695 100.102 83.1071 99.7269 83.4551C99.3514 83.8032 98.9072 83.9772 98.3943 83.9772H56.4656C55.9527 83.9772 55.5085 83.8032 55.133 83.4551C54.7574 83.1071 54.5697 82.695 54.5697 82.2187H51.0527V78.7018L77.4299 68.1509ZM58.0867 85.7357H65.1206V106.837H68.6375V85.7357H75.6714V106.837H79.1884V85.7357H86.2223V106.837H89.7393V85.7357H96.7732V106.837H98.3943C98.9072 106.837 99.3514 107.011 99.7269 107.359C100.102 107.708 100.29 108.12 100.29 108.596V110.354H54.5697V108.596C54.5697 108.12 54.7574 107.708 55.133 107.359C55.5085 107.011 55.9527 106.837 56.4656 106.837H58.0867V85.7357ZM101.911 112.113C102.424 112.113 102.868 112.287 103.244 112.635C103.619 112.983 103.807 113.395 103.807 113.871V117.388H51.0527V113.871C51.0527 113.395 51.2405 112.983 51.616 112.635C51.9915 112.287 52.4357 112.113 52.9486 112.113H101.911Z" fill="#007226"/>
</g>
<path d="M120.429 131.767H107.595C106.86 131.767 106.264 131.171 106.264 130.435V129.545C106.264 128.81 106.86 128.213 107.595 128.213H120.429C121.165 128.213 121.761 128.81 121.761 129.545V130.435C121.761 131.171 121.165 131.767 120.429 131.767Z" stroke="#292929" stroke-width="2.15" stroke-miterlimit="10" stroke-linecap="round" stroke-linejoin="round"/>
<path d="M120.429 131.767H107.595C106.86 131.767 106.264 131.171 106.264 130.435V129.545C106.264 128.81 106.86 128.213 107.595 128.213H120.429C121.165 128.213 121.761 128.81 121.761 129.545V130.435C121.761 131.171 121.165 131.767 120.429 131.767Z" fill="#FFB62E"/>
<path opacity="0.88" d="M120.429 128.58H107.595C106.86 128.58 106.264 129.176 106.264 129.911V130.431C106.264 129.695 106.86 129.099 107.595 129.099H120.429C121.165 129.099 121.761 129.695 121.761 130.431V129.911C121.761 129.176 121.165 128.58 120.429 128.58Z" fill="#FFB62E"/>
<path d="M120.429 131.365H107.595C106.86 131.365 106.264 130.769 106.264 130.033V129.514C106.264 130.25 106.86 130.846 107.595 130.846H120.429C121.165 130.846 121.761 130.25 121.761 129.514V130.033C121.761 130.769 121.165 131.365 120.429 131.365Z" fill="#FFB62E"/>
<path d="M49.3506 132.737L127.631 132.737" stroke="#292929" stroke-miterlimit="10" stroke-linecap="round" stroke-linejoin="round"/>
<path d="M122.565 128.214H109.731C108.996 128.214 108.399 127.617 108.399 126.882V125.992C108.399 125.256 108.996 124.66 109.731 124.66H122.565C123.3 124.66 123.897 125.257 123.897 125.992V126.882C123.897 127.618 123.3 128.214 122.565 128.214Z" fill="#FFB62E"/>
<path opacity="0.88" d="M122.565 125.026H109.731C108.996 125.026 108.399 125.623 108.399 126.358V126.877C108.399 126.142 108.996 125.546 109.731 125.546H122.565C123.3 125.546 123.897 126.142 123.897 126.877V126.358C123.897 125.623 123.3 125.026 122.565 125.026Z" fill="#FFB62E"/>
<path d="M122.565 127.813H109.731C108.996 127.813 108.399 127.217 108.399 126.482V125.962C108.399 126.698 108.996 127.294 109.731 127.294H122.565C123.3 127.294 123.897 126.698 123.897 125.962V126.482C123.897 127.217 123.3 127.813 122.565 127.813Z" fill="#FFB62E"/>
<path d="M122.565 128.214H109.731C108.996 128.214 108.399 127.617 108.399 126.882V125.992C108.399 125.256 108.996 124.66 109.731 124.66H122.565C123.3 124.66 123.897 125.257 123.897 125.992V126.882C123.897 127.618 123.3 128.214 122.565 128.214Z" stroke="#292929" stroke-width="1.146" stroke-miterlimit="10" stroke-linecap="round" stroke-linejoin="round"/>
<path d="M120.429 124.659H107.595C106.86 124.659 106.264 124.063 106.264 123.327V122.437C106.264 121.702 106.86 121.105 107.595 121.105H120.429C121.165 121.105 121.761 121.702 121.761 122.437V123.327C121.761 124.063 121.165 124.659 120.429 124.659Z" fill="#FFB62E"/>
<path opacity="0.88" d="M120.429 121.472H107.595C106.86 121.472 106.264 122.068 106.264 122.804V123.323C106.264 122.587 106.86 121.991 107.595 121.991H120.429C121.165 121.991 121.761 122.587 121.761 123.323V122.804C121.761 122.068 121.165 121.472 120.429 121.472Z" fill="#FFB62E"/>
<path d="M120.429 124.259H107.595C106.86 124.259 106.264 123.662 106.264 122.927V122.408C106.264 123.143 106.86 123.74 107.595 123.74H120.429C121.165 123.74 121.761 123.143 121.761 122.408V122.927C121.761 123.663 121.165 124.259 120.429 124.259Z" fill="#FFB62E"/>
<path d="M120.429 124.659H107.595C106.86 124.659 106.264 124.063 106.264 123.327V122.437C106.264 121.702 106.86 121.105 107.595 121.105H120.429C121.165 121.105 121.761 121.702 121.761 122.437V123.327C121.761 124.063 121.165 124.659 120.429 124.659Z" stroke="#292929" stroke-width="1.146" stroke-miterlimit="10" stroke-linecap="round" stroke-linejoin="round"/>
<path d="M105.904 121.973L97.1371 131.345C96.6346 131.882 95.7919 131.911 95.2546 131.408L94.6047 130.8C94.0675 130.298 94.0393 129.455 94.5418 128.918L103.309 119.545C103.811 119.008 104.654 118.98 105.191 119.482L105.841 120.09C106.378 120.593 106.406 121.436 105.904 121.973Z" fill="#FFB62E"/>
<path opacity="0.88" d="M103.576 119.796L94.8094 129.169C94.3069 129.706 94.3351 130.549 94.8723 131.051L95.2514 131.406C94.7143 130.903 94.686 130.061 95.1886 129.523L103.955 120.151C104.458 119.614 105.301 119.585 105.838 120.088L105.459 119.733C104.922 119.231 104.079 119.259 103.576 119.796Z" fill="#FFB62E"/>
<path d="M105.611 121.699L96.8447 131.072C96.3422 131.609 95.4995 131.637 94.9622 131.134L94.583 130.78C95.1202 131.282 95.963 131.254 96.4656 130.717L105.232 121.344C105.735 120.807 105.707 119.964 105.169 119.462L105.549 119.817C106.086 120.319 106.114 121.162 105.611 121.699Z" fill="#FFB62E"/>
<path d="M105.904 121.973L97.1371 131.345C96.6346 131.882 95.7919 131.911 95.2546 131.408L94.6047 130.8C94.0675 130.298 94.0393 129.455 94.5418 128.918L103.309 119.545C103.811 119.008 104.654 118.98 105.191 119.482L105.841 120.09C106.378 120.593 106.406 121.436 105.904 121.973Z" stroke="#292929" stroke-width="1.146" stroke-miterlimit="10" stroke-linecap="round" stroke-linejoin="round"/>
<defs>
<clipPath id="clip0_33_73">
<rect width="52.7544" height="52.7544" fill="white" transform="translate(51.0527 64.667)"/>
</clipPath>
</defs>
</svg>
