<svg width="95" height="72" viewBox="0 0 95 72" fill="none" xmlns="http://www.w3.org/2000/svg">
<path d="M34.8764 41.135C40.5216 39.6347 43.5944 42.5105 44.845 45.762C44.3209 45.0538 42.987 42.3614 39.9679 42.6179C40.3609 45.4408 36.7343 46.5479 34.5012 45.4408C32.2681 44.3332 29.1239 44.7258 27.5518 44.9227C27.5816 44.7376 28.1521 43.7222 30.1958 41.135C33.8688 36.7331 39.5034 37.7946 40.3609 40.7424C39.9738 40.6647 37.8955 39.4558 34.8764 41.135Z" fill="white"/>
<path d="M57.7649 43.585C52.8037 43.2531 51.0587 45.1129 50.5439 48.0309C50.8663 47.3541 51.1886 45.932 53.7528 45.6535C53.8844 48.0742 57.3447 48.0157 59.0301 46.7269C60.7149 45.4381 62.3829 44.1751 63.7285 44.0829C62.0493 42.0999 61.5486 41.7606 61.5486 41.7606C57.7626 38.6852 53.638 40.8392 53.4023 43.4399C53.7134 43.3122 54.9684 42.6759 57.7649 43.585Z" fill="white"/>
<path d="M66.4233 47.4801C61.6467 46.099 61.6568 46.8517 61.6568 46.8517C61.2456 47.5127 61.1387 48.8887 61.1387 48.8887C61.2816 51.4613 65.0687 51.7195 66.9898 50.8194C68.9109 49.9193 70.8095 49.0412 72.1439 49.2375C70.926 46.9423 70.5091 46.5041 70.5091 46.5041C67.4652 42.6922 62.9771 43.918 62.1923 46.4084C62.5231 46.3499 63.8851 45.9961 66.4233 47.4801Z" fill="white"/>
<path d="M69.3325 39.071C64.5558 37.6894 64.566 38.4427 64.566 38.4427C64.1547 39.1037 64.0479 40.4791 64.0479 40.4791C64.1907 43.0517 67.9778 43.3104 69.899 42.4104C71.8201 41.5103 73.7187 40.6321 75.0525 40.8285C73.8346 38.5332 73.4183 38.095 73.4183 38.095C70.3743 34.2831 65.8857 35.5089 65.1009 37.9994C65.4317 37.9409 66.7942 37.5865 69.3325 39.071Z" fill="white"/>
<path d="M63.2923 33.464C58.0657 34.5937 58.4589 35.302 58.4589 35.302C58.4077 36.1374 59.0079 37.4943 59.0079 37.4943C60.4559 39.857 64.1739 38.1688 65.533 36.3365C66.8921 34.5037 68.2417 32.7032 69.6053 32.2082C67.2803 30.6568 66.6626 30.4544 66.6626 30.4544C61.8353 28.3992 58.2114 31.8503 58.7396 34.6089C59.0231 34.3845 60.1319 33.354 63.2923 33.464Z" fill="white"/>
<path d="M79.1934 45.154C74.4719 42.6422 74.3155 43.4371 74.3155 43.4371C73.7366 44.0418 73.3192 45.4657 73.3192 45.4657C72.8995 48.2047 76.8284 49.3163 79.0493 48.7943C81.2709 48.2722 83.4637 47.7688 84.8245 48.2711C84.051 45.5855 83.7095 45.0319 83.7095 45.0319C81.3507 40.3459 76.3553 40.6418 74.9776 43.0889C75.3387 43.1007 76.8509 43.0298 79.1934 45.154Z" fill="white"/>
<path d="M90.6221 45.9544C86.9413 43.3391 86.7241 43.9877 86.7241 43.9877C86.174 44.4316 85.6699 45.5786 85.6699 45.5786C85.0218 47.8266 88.1907 49.1829 90.1073 48.9866C92.0239 48.7903 93.9147 48.6069 94.9999 49.1745C94.6432 46.8421 94.4176 46.3415 94.4176 46.3415C92.9499 42.1623 88.7347 41.868 87.3159 43.7683C87.6169 43.8173 88.8911 43.9214 90.6221 45.9544Z" fill="white"/>
<path d="M91.5156 37.5701C88.9498 34.6657 88.6416 35.1652 88.6416 35.1652C88.0953 35.4285 87.4501 36.2886 87.4501 36.2886C86.469 38.041 88.8525 39.7939 90.4929 40.0043C92.1328 40.2147 93.749 40.4302 94.545 41.117C94.7025 39.0975 94.6119 38.635 94.6119 38.635C94.2018 34.8552 90.736 33.7864 89.1794 35.0971C89.4213 35.1967 90.4654 35.5331 91.5156 37.5701Z" fill="white"/>
<path d="M83.0995 38.6346C79.3051 35.6739 79.0429 36.354 79.0429 36.354C78.436 36.8001 77.8441 37.9972 77.8441 37.9972C77.047 40.36 80.3565 41.9559 82.4065 41.8384C84.4564 41.7213 86.4782 41.6156 87.6061 42.2726C87.3384 39.7715 87.1218 39.2281 87.1218 39.2281C85.7587 34.708 81.2853 34.1933 79.6837 36.1487C80.0021 36.2151 81.3534 36.3872 83.0995 38.6346Z" fill="white"/>
<path d="M86.254 30.674C82.1541 29.0841 82.104 29.7482 82.104 29.7482C81.6905 30.2985 81.4886 31.5019 81.4886 31.5019C81.4132 33.7794 84.7294 34.3028 86.4919 33.6601C88.255 33.017 89.9961 32.3917 91.1561 32.669C90.2622 30.5518 89.9297 30.1331 89.9297 30.1331C87.5461 26.5375 83.4958 27.2667 82.6103 29.3996C82.9062 29.3737 84.1337 29.1681 86.254 30.674Z" fill="white"/>
<path d="M75.2536 32.4702C70.3847 31.2526 70.4224 32.0119 70.4224 32.0119C70.032 32.6937 69.9746 34.0853 69.9746 34.0853C70.2137 36.6752 74.043 36.7967 75.9478 35.8179C77.8526 34.839 79.7355 33.8834 81.089 34.0324C79.7754 31.7619 79.3394 31.3351 79.3394 31.3351C76.1284 27.6022 71.646 29.0037 70.9461 31.545C71.2775 31.4737 72.6389 31.0663 75.2536 32.4702Z" fill="white"/>
<path d="M80.5763 25.2279C75.5763 25.0859 75.7754 25.8169 75.7754 25.8169C75.542 26.5642 75.7839 27.9311 75.7839 27.9311C76.5715 30.4007 80.3254 29.6986 81.9697 28.3376C83.6141 26.9768 85.2421 25.6432 86.5911 25.4983C84.8264 23.5695 84.3105 23.2476 84.3105 23.2476C80.385 20.3019 76.3222 22.6266 76.1855 25.2502C76.4927 25.1098 77.7303 24.4216 80.5763 25.2279Z" fill="white"/>
<path d="M69.3197 25.5465C64.5757 26.1191 64.8676 26.7815 64.8676 26.7815C64.7523 27.5204 65.1742 28.7773 65.1742 28.7773C66.2673 30.999 69.714 29.8051 71.0748 28.2871C72.4362 26.7692 73.7852 25.2793 75.0392 24.9517C73.0995 23.3792 72.5667 23.148 72.5667 23.148C68.4426 20.9203 64.9329 23.6906 65.1748 26.1882C65.4454 26.0121 66.517 25.1871 69.3197 25.5465Z" fill="white"/>
<path d="M82.5336 17.3847C79.2995 14.3589 79.0036 14.9607 79.0036 14.9607C78.4101 15.3196 77.7693 16.3684 77.7693 16.3684C76.8439 18.4685 79.7461 20.2035 81.6346 20.2647C83.5237 20.3259 85.3857 20.3957 86.3657 21.0906C86.3258 18.7762 86.1722 18.2601 86.1722 18.2601C85.2952 14.0045 81.2363 13.1646 79.6072 14.8251C79.8935 14.9122 81.1182 15.1811 82.5336 17.3847Z" fill="white"/>
<path d="M75.9137 11.8931C72.5418 10.4973 72.4878 11.0475 72.4878 11.0475C72.1339 11.4963 71.9443 12.4911 71.9443 12.4911C71.8392 14.3793 74.581 14.8758 76.0555 14.3752C77.5299 13.8745 78.9864 13.3882 79.9439 13.6399C79.2418 11.8665 78.9734 11.5129 78.9734 11.5129C77.063 8.485 73.6888 9.01442 72.9142 10.7676C73.16 10.7518 74.1827 10.604 75.9137 11.8931Z" fill="white"/>
<path d="M75.1018 19.8564C71.3727 18.3129 71.313 18.9213 71.313 18.9213C70.922 19.4176 70.7122 20.5176 70.7122 20.5176C70.5963 22.6057 73.6279 23.1546 75.2588 22.601C76.889 22.0474 78.4996 21.5097 79.5584 21.7879C78.782 19.8269 78.4856 19.436 78.4856 19.436C76.3726 16.0877 72.6412 16.6732 71.7844 18.6118C72.0567 18.5942 73.1874 18.431 75.1018 19.8564Z" fill="white"/>
<path d="M67.989 17.021C64.0314 18.7885 64.4618 19.2844 64.4618 19.2844C64.5602 19.9556 65.2623 20.9319 65.2623 20.9319C66.8048 22.5643 69.4724 20.6059 70.2448 18.9257C71.0172 17.2455 71.7879 15.5926 72.7864 14.9727C70.6842 14.1297 70.1604 14.0722 70.1604 14.0722C65.9891 13.2468 63.6899 16.5882 64.5686 18.688C64.756 18.4628 65.4637 17.4606 67.989 17.021Z" fill="white"/>
<path d="M68.4364 8.25953C64.5171 10.0099 64.943 10.5009 64.943 10.5009C65.0403 11.1657 65.7362 12.1324 65.7362 12.1324C67.2641 13.7491 69.9053 11.8097 70.6703 10.1457C71.4354 8.48179 72.1982 6.84493 73.1872 6.23107C71.1052 5.39624 70.5865 5.33925 70.5865 5.33925C66.4557 4.52186 64.179 7.83086 65.0493 9.91034C65.235 9.68734 65.9359 8.69489 68.4364 8.25953Z" fill="white"/>
<path d="M60.3226 16.6529C55.5431 18.7875 56.0629 19.3864 56.0629 19.3864C56.1816 20.1971 57.03 21.3761 57.03 21.3761C58.8931 23.3476 62.1143 20.9824 63.047 18.9532C63.9803 16.924 64.9102 14.9278 66.1169 14.1792C63.5775 13.1611 62.9452 13.0917 62.9452 13.0917C57.9075 12.0948 55.1308 16.1302 56.1923 18.6661C56.4185 18.3942 57.273 17.1839 60.3226 16.6529Z" fill="white"/>
<path d="M58.1464 26.8016C52.8724 29.1571 53.4457 29.8179 53.4457 29.8179C53.5767 30.7125 54.5134 32.0136 54.5134 32.0136C56.5689 34.1892 60.1232 31.5792 61.1532 29.3399C62.1827 27.1007 63.2093 24.8979 64.5403 24.0718C61.7382 22.9483 61.0401 22.8717 61.0401 22.8717C55.4815 21.7716 52.4173 26.2247 53.5885 29.0231C53.8383 28.7231 54.7812 27.3875 58.1464 26.8016Z" fill="white"/>
<path d="M59.6788 7.19261C55.791 10.5395 56.4469 10.9557 56.4469 10.9557C56.7861 11.6835 57.914 12.5521 57.914 12.5521C60.2171 13.8798 62.577 10.7543 62.8831 8.5869C63.1891 6.41955 63.5013 4.2841 64.4239 3.24225C61.754 2.99973 61.1403 3.11224 61.1403 3.11224C56.1307 3.59148 54.6574 8.16032 56.3659 10.2431C56.502 9.92426 56.9644 8.54786 59.6788 7.19261Z" fill="white"/>
<path d="M50.3198 21.2216C47.0098 26.0404 47.8539 26.3083 47.8539 26.3083C48.4392 27.0116 49.9351 27.6406 49.9351 27.6406C52.8587 28.4337 54.5497 24.3031 54.2566 21.8259C53.9629 19.3486 53.6862 16.9046 54.3995 15.4883C51.387 15.9977 50.7434 16.3002 50.7434 16.3002C45.3628 18.2856 45.0685 23.7486 47.5574 25.5466C47.6145 25.1556 47.7237 23.5044 50.3198 21.2216Z" fill="white"/>
<path d="M51.1295 9.06994C48.0095 13.6116 48.805 13.864 48.805 13.864C49.3568 14.5269 50.766 15.1197 50.766 15.1197C53.522 15.8672 55.1157 11.9742 54.8389 9.63947C54.5627 7.30476 54.3017 5.00133 54.9739 3.6665C52.1347 4.14664 51.5283 4.43169 51.5283 4.43169C46.4571 6.30291 46.1798 11.4516 48.5254 13.1462C48.5794 12.7777 48.6823 11.2215 51.1295 9.06994Z" fill="white"/>
<path d="M45.4326 3.93401C41.323 6.95138 41.9411 7.41436 41.9411 7.41436C42.2212 8.16165 43.272 9.10905 43.272 9.10905C45.4518 10.6018 48.0307 7.68618 48.5004 5.56209C48.9702 3.43801 49.4444 1.34598 50.4384 0.384635C47.8114 -0.0610759 47.1948 0.00322401 47.1948 0.00322401C42.1938 0.0927825 40.3826 4.50675 41.9157 6.70205C42.075 6.39653 42.6391 5.06817 45.4326 3.93401Z" fill="white"/>
<path d="M43.0668 14.9048C45.1655 19.5512 45.7467 19.0427 45.7467 19.0427C46.5358 18.9237 47.6807 18.0925 47.6807 18.0925C49.5931 16.2699 47.2764 13.1422 45.2961 12.2417C43.3158 11.3412 41.3677 10.4433 40.6336 9.27136C39.6524 11.7487 39.5873 12.3652 39.5873 12.3652C38.6369 17.2759 42.5789 19.9638 45.0446 18.9197C44.7788 18.7004 43.5964 17.8729 43.0668 14.9048Z" fill="white"/>
<path d="M35.4289 5.78281C38.7225 8.71017 39.002 8.10407 39.002 8.10407C39.5829 7.73205 40.1935 6.6726 40.1935 6.6726C41.0607 4.56027 38.13 2.90833 36.2498 2.89545C34.3696 2.88262 32.5158 2.86051 31.5234 2.19434C31.622 4.49518 31.788 5.00468 31.788 5.00468C32.7684 9.21511 36.8266 9.94728 38.4046 8.25433C38.1176 8.17501 36.8928 7.93857 35.4289 5.78281Z" fill="white"/>
<path d="M34.2917 14.7286C36.1639 18.8403 36.6775 18.3881 36.6775 18.3881C37.3765 18.2806 38.3888 17.5409 38.3888 17.5409C40.0788 15.9208 38.0174 13.1554 36.2601 12.3627C34.5029 11.57 32.7743 10.7796 32.1206 9.74304C31.2577 11.9409 31.2017 12.4874 31.2017 12.4874C30.3727 16.8415 33.8729 19.2128 36.0551 18.281C35.819 18.0874 34.7691 17.3573 34.2917 14.7286Z" fill="white"/>
<path d="M39.7666 25.3506C43.9053 30.1981 43.0206 30.5848 43.0206 30.5848C42.466 31.4142 40.9162 32.2666 40.9162 32.2666C37.8364 33.46 35.5318 29.1741 35.5673 26.4546C35.6029 23.7351 35.6243 21.0536 34.6895 19.5992C38.0141 19.8081 38.7461 20.0627 38.7461 20.0627C44.8069 21.6019 45.7489 27.4918 43.2552 29.7251C43.1487 29.3077 42.8421 27.5298 39.7666 25.3506Z" fill="white"/>
<path d="M26.5725 10.3171C30.7429 13.158 30.1477 13.6376 30.1477 13.6376C29.8967 14.3865 28.8905 15.3603 28.8905 15.3603C26.7865 16.913 24.1339 14.1192 23.5949 12.0347C23.0559 9.95008 22.5139 7.89743 21.4971 6.98126C24.0799 6.44858 24.6921 6.49066 24.6921 6.49066C29.6418 6.40447 31.5876 10.7071 30.1478 12.9321C29.9796 12.6355 29.3752 11.3413 26.5725 10.3171Z" fill="white"/>
<path d="M20.4488 24.444C25.3231 24.1912 25.1454 24.9088 25.1454 24.9088C25.3904 25.6325 25.1854 26.9713 25.1854 26.9713C24.4738 29.3984 20.7959 28.7992 19.1609 27.5093C17.5258 26.2194 15.9071 24.9557 14.5879 24.8453C16.2653 22.9235 16.7613 22.5976 16.7613 22.5976C20.5228 19.6345 24.5393 21.8093 24.7326 24.3654C24.4295 24.2355 23.2067 23.5925 20.4488 24.444Z" fill="white"/>
<path d="M18.915 14.8294C23.5066 13.7354 23.4632 14.449 23.4632 14.449C23.823 15.0943 23.8625 16.4036 23.8625 16.4036C23.6107 18.8366 20.0079 18.9108 18.2269 17.9703C16.4459 17.0299 14.6852 16.1115 13.4111 16.2375C14.6699 14.116 15.0846 13.7192 15.0846 13.7192C18.1431 10.2423 22.344 11.6073 22.9756 14.0045C22.6645 13.934 21.3888 13.5366 18.915 14.8294Z" fill="white"/>
<path d="M18.4225 32.5661C22.9317 30.0572 23.097 30.8211 23.097 30.8211C23.6665 31.394 24.0951 32.7603 24.0951 32.7603C24.5494 35.3953 20.7794 36.5384 18.6268 36.0755C16.4743 35.6119 14.3496 35.1658 13.0459 35.6755C13.7435 33.0702 14.0627 32.53 14.0627 32.53C16.2539 27.9664 21.0789 28.1611 22.4523 30.4974C22.104 30.5152 20.644 30.4741 18.4225 32.5661Z" fill="white"/>
<path d="M13.0844 19.9483C16.8711 18.5723 16.904 19.1817 16.904 19.1817C17.2721 19.6938 17.4334 20.8001 17.4334 20.8001C17.4574 22.8878 14.4096 23.3025 12.8075 22.6789C11.2055 22.0552 9.62281 21.4484 8.55469 21.6796C9.415 19.7577 9.72789 19.3808 9.72789 19.3808C11.982 16.1339 15.6775 16.8812 16.4471 18.8523C16.1764 18.8229 15.0559 18.6105 13.0844 19.9483Z" fill="white"/>
<path d="M14.3655 40.0859C18.761 39.0829 18.713 39.7641 18.713 39.7641C19.0507 40.3841 19.0765 41.6346 19.0765 41.6346C18.8137 43.9563 15.3719 43.994 13.6795 43.0793C11.9871 42.1651 10.3137 41.2718 9.0957 41.3804C10.3174 39.3653 10.7172 38.9906 10.7172 38.9906C13.6702 35.6974 17.67 37.0397 18.2513 39.3349C17.9548 39.2652 16.7401 38.8736 14.3655 40.0859Z" fill="white"/>
<path d="M25.1989 38.4235C30.1046 36.6194 30.1503 37.4098 30.1503 37.4098C30.6304 38.0725 30.8452 39.5065 30.8452 39.5065C30.887 42.2152 26.935 42.7681 24.8534 41.9676C22.7719 41.1666 20.7156 40.3869 19.3311 40.6923C20.4374 38.1946 20.8415 37.704 20.8415 37.704C23.7495 33.4804 28.5475 34.4317 29.5559 36.9845C29.2045 36.948 27.7498 36.6779 25.1989 38.4235Z" fill="white"/>
<path d="M22.7809 45.6709C27.262 44.0226 27.3038 44.745 27.3038 44.745C27.7423 45.3503 27.9386 46.6605 27.9386 46.6605C27.9767 49.134 24.3667 49.6397 22.4653 48.9079C20.5639 48.1765 18.6856 47.4643 17.4209 47.7434C18.4315 45.4617 18.8006 45.0139 18.8006 45.0139C21.4569 41.1559 25.8397 42.0245 26.7608 44.3568C26.4399 44.323 25.1111 44.0766 22.7809 45.6709Z" fill="white"/>
<path d="M12.0104 47.1303C15.4751 44.3389 15.7273 44.9639 15.7273 44.9639C16.295 45.3672 16.8591 46.4653 16.8591 46.4653C17.6306 48.6379 14.5942 50.1613 12.6974 50.082C10.8005 50.0032 8.92984 49.9352 7.89648 50.5585C8.10823 48.243 8.30045 47.7373 8.30045 47.7373C9.49487 43.5389 13.6233 42.9983 15.1322 44.7827C14.8388 44.8491 13.5921 45.0275 12.0104 47.1303Z" fill="white"/>
<path d="M11.2671 27.4079C15.7251 28.4267 15.3814 29.028 15.3814 29.028C15.4171 29.743 14.8899 30.8973 14.8899 30.8973C13.6278 32.9028 10.4661 31.4222 9.32224 29.8414C8.1784 28.2605 7.04272 26.7076 5.88184 26.2706C7.88526 24.9674 8.41569 24.8006 8.41569 24.8006C12.5638 23.0919 15.6278 26.0794 15.1484 28.4327C14.9083 28.238 13.9706 27.3458 11.2671 27.4079Z" fill="white"/>
<path d="M6.50535 34.9105C9.72636 32.315 9.96089 32.896 9.96089 32.896C10.4886 33.2711 11.013 34.2923 11.013 34.2923C11.7302 36.3124 8.90745 37.7278 7.14396 37.6546C5.38053 37.5815 3.64134 37.5179 2.68066 38.0974C2.87756 35.9445 3.05628 35.4747 3.05628 35.4747C4.1667 31.5713 8.00484 31.069 9.40756 32.728C9.13484 32.7893 7.97581 32.9554 6.50535 34.9105Z" fill="white"/>
<path d="M4.67234 41.7764C7.89336 39.1813 8.12783 39.7618 8.12783 39.7618C8.65561 40.1371 9.18003 41.1581 9.18003 41.1581C9.89723 43.1782 7.07445 44.5942 5.31095 44.5205C3.54752 44.4474 1.80833 44.3838 0.847656 44.9638C1.04455 42.8109 1.22322 42.3406 1.22322 42.3406C2.3337 38.4376 6.17183 37.9352 7.5745 39.5942C7.30183 39.6555 6.1428 39.8215 4.67234 41.7764Z" fill="white"/>
<path d="M3.8684 48.0258C7.10747 46.5378 7.1806 47.0728 7.1806 47.0728C7.54226 47.4976 7.76464 48.4612 7.76464 48.4612C7.93712 50.3002 5.2799 50.8869 3.82221 50.4532C2.36447 50.0195 0.925006 49.5993 0 49.8805C0.619259 48.1237 0.867851 47.7681 0.867851 47.7681C2.61998 44.7422 5.93246 45.1331 6.75385 46.8157C6.51307 46.809 5.50976 46.7032 3.8684 48.0258Z" fill="white"/>
<path d="M28.5385 21.6188C33.3809 23.0379 32.9623 23.6773 32.9623 23.6773C32.954 24.4672 32.2964 25.7035 32.2964 25.7035C30.7726 27.8285 27.3888 25.987 26.2342 24.1696C25.0797 22.3522 23.9321 20.566 22.6826 20.0074C24.976 18.7055 25.5714 18.557 25.5714 18.557C30.2542 16.9513 33.4301 20.4459 32.7452 23.0061C32.4939 22.7757 31.5204 21.7304 28.5385 21.6188Z" fill="white"/>
<path d="M43.5233 39.992C43.4178 39.7546 43.3083 39.5206 43.195 39.2899C42.1323 37.6231 38.7248 33.9695 36.413 33.1139C36.413 35.347 30.5712 37.5623 28.481 34.1679C26.3908 30.7736 26.2744 30.627 24.8467 29.9401C24.9717 29.8011 26.0018 28.7317 29.1212 27.6652C34.5936 25.9561 36.1629 28.8621 36.7524 31.6133C36.4691 31.3385 35.5555 30.2913 31.2679 30.4521C36.2597 30.5921 40.6789 34.1611 43.195 39.2899C43.397 39.6067 43.5143 39.8514 43.5233 39.992Z" fill="white"/>
<path d="M45.4774 44.7445C44.9683 39.1577 39.3004 34.9043 36.5302 33.4758C35.467 32.8574 35.2386 32.1484 35.2574 31.8712C35.8252 31.9623 36.9533 32.1629 36.9233 32.2359C41.3281 34.7389 44.2752 38.2762 44.3354 38.499C44.2856 35.7284 42.032 32.0884 40.9102 30.6131C41.1722 30.303 41.7226 29.6831 41.8274 29.6831C43.1987 29.6831 46.0396 37.6135 46.2712 38.6374C45.8262 34.1374 47.2619 27.8876 48.0416 25.3069C48.4162 25.6594 49.1723 26.3718 49.2021 26.4009C47.0497 33.5305 48.1164 41.9727 48.1918 41.9727C48.1316 36.2257 51.9974 31.3849 53.9377 29.6831C54.0316 30.0234 54.2336 30.686 54.2938 30.6131C50.4004 36.2836 49.9886 41.8085 49.9886 41.9727C51.1564 38.2385 56.5395 35.7127 59.0856 34.9161C58.9484 35.208 58.756 35.81 59.0856 35.8825C51.4484 39.2196 50.3064 44.7445 49.9886 44.7445C49.0154 51.9654 51.3173 61.6351 52.5904 65.5679C63.2519 64.8237 66.8286 69.0017 67.2837 71.1839H27.6953C29.0804 65.4402 41.8461 65.5134 42.0145 65.5679C46.5817 61.8478 45.5523 45.0724 45.4774 44.7445Z" fill="white"/>
</svg>
